<svg width="60" height="60" viewBox="0 0 60 60" fill="none" xmlns="http://www.w3.org/2000/svg">
<rect x="0.5" y="0.5" width="59" height="59" rx="29.5" fill="#414141"/>
<path d="M20.4971 22.485V35.9175C20.4996 36.9073 20.894 37.8558 21.5939 38.5557C22.2938 39.2556 23.2423 39.6499 24.2321 39.6525H29.2871C29.359 39.1333 29.5082 38.6277 29.7296 38.1525C30.3352 36.8166 31.4306 35.7643 32.7896 35.2125C32.2999 34.8736 31.8999 34.4207 31.6242 33.8929C31.3485 33.365 31.2054 32.778 31.2071 32.1825C31.2081 31.1982 31.5995 30.2545 32.2955 29.5585C32.9915 28.8624 33.9353 28.471 34.9196 28.47C35.278 28.4686 35.6346 28.5217 35.9771 28.6275C36.5393 28.7938 37.0535 29.0921 37.4771 29.4975V22.485C37.4771 21.4944 37.0836 20.5444 36.3831 19.844C35.6827 19.1435 34.7327 18.75 33.7421 18.75H24.2321C23.2419 18.7514 22.2927 19.1453 21.5926 19.8455C20.8924 20.5456 20.4985 21.4948 20.4971 22.485ZM25.0271 22.47H32.9471C33.146 22.47 33.3367 22.549 33.4774 22.6897C33.6181 22.8303 33.6971 23.0211 33.6971 23.22C33.6971 23.4189 33.6181 23.6097 33.4774 23.7503C33.3367 23.891 33.146 23.97 32.9471 23.97H25.0271C24.8282 23.97 24.6374 23.891 24.4967 23.7503C24.3561 23.6097 24.2771 23.4189 24.2771 23.22C24.2771 23.0211 24.3561 22.8303 24.4967 22.6897C24.6374 22.549 24.8282 22.47 25.0271 22.47ZM25.0271 26.46H32.9471C33.146 26.46 33.3367 26.539 33.4774 26.6797C33.6181 26.8203 33.6971 27.0111 33.6971 27.21C33.6971 27.4089 33.6181 27.5997 33.4774 27.7403C33.3367 27.881 33.146 27.96 32.9471 27.96H25.0271C24.8282 27.96 24.6374 27.881 24.4967 27.7403C24.3561 27.5997 24.2771 27.4089 24.2771 27.21C24.2771 27.0111 24.3561 26.8203 24.4967 26.6797C24.6374 26.539 24.8282 26.46 25.0271 26.46ZM25.0271 30.4425H28.6271C28.826 30.4425 29.0167 30.5215 29.1574 30.6622C29.2981 30.8028 29.3771 30.9936 29.3771 31.1925C29.3771 31.3914 29.2981 31.5822 29.1574 31.7228C29.0167 31.8635 28.826 31.9425 28.6271 31.9425H25.0271C24.8282 31.9425 24.6374 31.8635 24.4967 31.7228C24.3561 31.5822 24.2771 31.3914 24.2771 31.1925C24.2771 30.9936 24.3561 30.8028 24.4967 30.6622C24.6374 30.5215 24.8282 30.4425 25.0271 30.4425Z" fill="#C29137"/>
<path d="M34.9195 34.77C36.3486 34.77 37.507 33.6115 37.507 32.1825C37.507 30.7534 36.3486 29.595 34.9195 29.595C33.4905 29.595 32.332 30.7534 32.332 32.1825C32.332 33.6115 33.4905 34.77 34.9195 34.77Z" fill="#C29137"/>
<path d="M31.0947 41.2499H38.7522C38.951 41.2493 39.1414 41.1701 39.2819 41.0296C39.4224 40.889 39.5016 40.6986 39.5022 40.4999C39.5022 39.2855 39.0198 38.1209 38.1611 37.2622C37.3025 36.4035 36.1378 35.9211 34.9235 35.9211C33.7091 35.9211 32.5445 36.4035 31.6858 37.2622C30.8271 38.1209 30.3447 39.2855 30.3447 40.4999C30.3453 40.6986 30.4245 40.889 30.5651 41.0296C30.7056 41.1701 30.896 41.2493 31.0947 41.2499Z" fill="#C29137"/>
<rect x="0.5" y="0.5" width="59" height="59" rx="29.5" stroke="#414141"/>
</svg>
