<svg width="24" height="24" viewBox="0 0 24 24" fill="none" xmlns="http://www.w3.org/2000/svg">
<path d="M11.3975 15.9162H12.6022V17.1208H11.3975V15.9162ZM16.1986 15.9162H17.4033V17.1208H16.1986V15.9162ZM6.59639 11.3975H7.8011V12.6022H6.59639V11.3975ZM6.59639 15.9162H7.8011V17.1208H6.59639V15.9162ZM19.0602 4.12966H18.6654V5.78668C18.6654 6.07791 18.4293 6.31402 18.138 6.31402C17.8468 6.31402 17.6107 6.07791 17.6107 5.78668V3.52733C17.6107 3.23611 17.3746 3 17.0834 3C16.7921 3 16.556 3.23611 16.556 3.52733V4.12966H15.2764V5.78668C15.2764 6.07791 15.0403 6.31402 14.749 6.31402C14.4578 6.31402 14.2217 6.07791 14.2217 5.78668V3.52733C14.2217 3.23611 13.9856 3 13.6944 3C13.4031 3 13.167 3.23611 13.167 3.52733V4.12966H11.8874V5.78668C11.8874 6.07791 11.6512 6.31402 11.36 6.31402C11.0688 6.31402 10.8327 6.07791 10.8327 5.78668V3.52733C10.8327 3.23611 10.5966 3 10.3053 3C10.0141 3 9.77801 3.23611 9.77801 3.52733V4.12966H8.49834V5.78668C8.49834 6.07791 8.26224 6.31402 7.97101 6.31402C7.67978 6.31402 7.44368 6.07791 7.44368 5.78668V3.52733C7.44368 3.23611 7.20757 3 6.91634 3C6.62511 3 6.38901 3.23611 6.38901 3.52733V4.12966H4.9394C3.87003 4.12966 3 4.99969 3 6.06909V7.51866H20.9997V6.06909C20.9997 4.99969 20.1297 4.12966 19.0602 4.12966Z" fill="#FEFEFE"/>
<path d="M3 19.0611C3 20.1305 3.87003 21.0006 4.9394 21.0006H19.0602C20.1297 21.0006 20.9997 20.1305 20.9997 19.0611V8.57422H3V19.0611ZM13.6568 17.6491C13.6568 17.9403 13.4207 18.1764 13.1295 18.1764H10.8701C10.5789 18.1764 10.3428 17.9403 10.3428 17.6491V15.3897C10.3428 15.0985 10.5789 14.8624 10.8701 14.8624H13.1295C13.4207 14.8624 13.6568 15.0985 13.6568 15.3897V17.6491ZM15.144 10.8711C15.144 10.5798 15.3801 10.3437 15.6713 10.3437H17.9306C18.2218 10.3437 18.4579 10.5798 18.4579 10.8711V13.1304C18.4579 13.4216 18.2218 13.6577 17.9306 13.6577H15.6713C15.3801 13.6577 15.144 13.4216 15.144 13.1304V10.8711ZM15.144 15.3897C15.144 15.0985 15.3801 14.8624 15.6713 14.8624H17.9306C18.2218 14.8624 18.4579 15.0985 18.4579 15.3897V17.6491C18.4579 17.9403 18.2218 18.1764 17.9306 18.1764H15.6713C15.3801 18.1764 15.144 17.9403 15.144 17.6491V15.3897ZM10.4288 11.6279C10.6347 11.422 10.9686 11.422 11.1746 11.6279L11.6005 12.0538L12.8252 10.8291C13.0311 10.6232 13.3649 10.6231 13.5709 10.8291C13.7769 11.035 13.7769 11.3689 13.571 11.5749L11.9734 13.1724C11.8745 13.2713 11.7404 13.3269 11.6006 13.3269C11.4607 13.3269 11.3266 13.2713 11.2277 13.1724L10.4288 12.3736C10.2229 12.1677 10.2229 11.8338 10.4288 11.6279ZM5.54172 10.8711C5.54172 10.5798 5.77782 10.3437 6.06905 10.3437H8.32844C8.61967 10.3437 8.85577 10.5798 8.85577 10.8711V13.1304C8.85577 13.4216 8.61967 13.6577 8.32844 13.6577H6.06905C5.77782 13.6577 5.54172 13.4216 5.54172 13.1304V10.8711ZM5.54172 15.3897C5.54172 15.0985 5.77782 14.8624 6.06905 14.8624H8.32844C8.61967 14.8624 8.85577 15.0985 8.85577 15.3897V17.6491C8.85577 17.9403 8.61967 18.1764 8.32844 18.1764H6.06905C5.77782 18.1764 5.54172 17.9403 5.54172 17.6491V15.3897Z" fill="#FEFEFE"/>
<path d="M16.1973 11.3984H17.4019V12.6031H16.1973V11.3984Z" fill="#FEFEFE"/>
</svg>
