<svg width="60" height="60" viewBox="0 0 60 60" fill="none" xmlns="http://www.w3.org/2000/svg">
<rect x="0.5" y="0.5" width="59" height="59" rx="29.5" fill="#414141"/>
<path d="M29.2969 37.2656H38.6719V39.1406H29.2969V37.2656Z" fill="#C29137"/>
<path d="M22.9688 39.1406H24.6094V37.2656H22.9688C22.6641 37.2656 22.6641 36.7969 22.9688 36.7969H38.6719V34.9219H22.9688C22.0641 34.9219 21.3281 35.6578 21.3281 36.5625V37.5C21.3281 38.4047 22.0641 39.1406 22.9688 39.1406Z" fill="#C29137"/>
<path d="M22.9688 34.4531H38.6719V18.0469H22.9688C22.0641 18.0469 21.3281 18.7828 21.3281 19.6875V35.2359C21.5255 34.9909 21.7754 34.7934 22.0594 34.6579C22.3434 34.5224 22.6541 34.4524 22.9688 34.4531ZM23.9062 26.1656C23.9109 25.7859 23.8688 25.0781 24.4219 25.0781H25.2187C25.3406 24.5906 25.5328 24.1266 25.7906 23.7L25.2234 23.1328C24.8208 22.725 25.4156 22.2141 25.6922 21.9422C25.9641 21.6656 26.4755 21.0703 26.8828 21.4734L27.45 22.0406C27.8766 21.7828 28.3406 21.5906 28.8281 21.4688V20.6719C28.8281 20.0719 29.6906 20.1516 30.0844 20.1562C30.4645 20.1609 31.1719 20.1188 31.1719 20.6719V21.4688C31.6594 21.5906 32.1234 21.7828 32.55 22.0406L33.1172 21.4734C33.5245 21.0703 34.0359 21.6656 34.3078 21.9422C34.5844 22.2141 35.1792 22.725 34.7766 23.1328L34.2094 23.7C34.4672 24.1266 34.6594 24.5906 34.7812 25.0781H35.5781C36.1777 25.0781 36.098 25.9406 36.0938 26.3344C36.0891 26.7141 36.1313 27.4219 35.5781 27.4219H34.7812C34.6605 27.9072 34.4677 28.3717 34.2094 28.8L34.7766 29.3672C35.1792 29.775 34.5844 30.2859 34.3078 30.5578C34.0359 30.8344 33.5245 31.4297 33.1172 31.0266L32.55 30.4594C32.1234 30.7172 31.6594 30.9094 31.1719 31.0312V31.8281C31.1719 32.4281 30.3094 32.3484 29.9156 32.3438C29.5355 32.3391 28.8281 32.3813 28.8281 31.8281V31.0312C28.3428 30.9105 27.8783 30.7177 27.45 30.4594L26.8828 31.0266C26.4755 31.4297 25.9641 30.8344 25.6922 30.5578C25.4156 30.2859 24.8208 29.775 25.2234 29.3672L25.7906 28.8C25.5328 28.3734 25.3406 27.9094 25.2187 27.4219H24.4219C23.8219 27.4219 23.9016 26.5594 23.9062 26.1656Z" fill="#C29137"/>
<path d="M30 28.8281C31.4062 28.8281 32.5781 27.6562 32.5781 26.25C32.5781 24.8437 31.4062 23.6719 30 23.6719C28.5938 23.6719 27.4219 24.8437 27.4219 26.25C27.4219 27.6562 28.5938 28.8281 30 28.8281ZM28.8281 41.7281V37.2656H25.0781V41.7281L26.9531 40.3781L28.8281 41.7281Z" fill="#C29137"/>
<rect x="0.5" y="0.5" width="59" height="59" rx="29.5" stroke="#414141"/>
</svg>
