<svg width="16" height="16" viewBox="0 0 16 16" fill="none" xmlns="http://www.w3.org/2000/svg">
<g clip-path="url(#clip0_290_10215)">
<path d="M11.5986 10.8362V7.87467C11.5986 7.36436 11.3011 6.92251 10.8708 6.71373V6.31248C10.8708 4.72719 9.58324 3.4375 8.00048 3.4375C6.41773 3.4375 5.13013 4.72719 5.13013 6.31248V6.71373C4.69981 6.92248 4.40234 7.36436 4.40234 7.87467V10.8362C4.40234 11.5469 4.97953 12.125 5.6886 12.125H10.3124C11.0214 12.125 11.5986 11.5469 11.5986 10.8362ZM8.00048 4.375C9.06721 4.375 9.93483 5.24407 9.93483 6.31248V6.58589H6.0661V6.31248C6.0661 5.24407 6.93376 4.375 8.00048 4.375ZM7.53236 9.67968V9.03124C7.53236 8.77249 7.74204 8.56249 8.00048 8.56249C8.25892 8.56249 8.46861 8.77249 8.46861 9.03124V9.67968C8.46861 9.93874 8.25892 10.1484 8.00048 10.1484C7.74204 10.1484 7.53236 9.93874 7.53236 9.67968Z" fill="#DADBDC"/>
<path d="M6.91146 14.326C5.43986 14.0739 4.09308 13.3043 3.1192 12.1588C2.13451 11.0005 1.59222 9.5236 1.59222 8.00003C1.59222 6.47646 2.13451 4.99952 3.1192 3.84133C3.86139 2.96836 4.82023 2.31401 5.88574 1.94032L5.71977 2.23541C5.5929 2.46098 5.67258 2.74682 5.89777 2.87389C6.1189 2.99979 6.40765 2.92317 6.53521 2.69557L7.23862 1.44504C7.36518 1.23235 7.28828 0.93491 7.07428 0.81066L5.8444 0.0674691C5.62305 -0.0662815 5.33542 0.00500009 5.20192 0.226688C5.06842 0.448377 5.13958 0.736472 5.36089 0.870191L5.63436 1.03544C4.39005 1.46022 3.27014 2.21782 2.4066 3.23351C1.27788 4.56114 0.65625 6.25393 0.65625 8.00003C0.65625 9.74613 1.27788 11.4389 2.4066 12.7666C3.52245 14.079 5.06627 14.961 6.75368 15.2501C7.00265 15.2946 7.25146 15.1236 7.29387 14.8671C7.33743 14.6119 7.16624 14.3696 6.91146 14.326ZM13.5935 3.23351C12.4776 1.92104 10.9338 1.03904 9.24638 0.750003C8.99153 0.706409 8.74975 0.877847 8.70619 1.133C8.66263 1.38819 8.83381 1.63041 9.08856 1.67407C10.5601 1.92616 11.9069 2.69582 12.8808 3.84133C13.8655 4.99952 14.4078 6.47646 14.4078 8.00003C14.4078 9.5236 13.8656 11.0005 12.8808 12.1587C12.1386 13.0317 11.1798 13.6861 10.1143 14.0597L10.2803 13.7646C10.4072 13.5391 10.3275 13.2532 10.1023 13.1262C9.8771 12.9992 9.59172 13.0789 9.46485 13.3045L8.76144 14.555C8.63488 14.7679 8.71169 15.0651 8.92578 15.1894L10.1557 15.9326C10.3734 16.0652 10.6639 15.9969 10.7982 15.7734C10.9317 15.5517 10.8605 15.2636 10.6392 15.1299L10.3657 14.9646C11.61 14.5398 12.73 13.7822 13.5935 12.7666C14.7222 11.4389 15.3439 9.74613 15.3439 8.00003C15.3439 6.25393 14.7222 4.56114 13.5935 3.23351Z" fill="#DADBDC"/>
</g>
<defs>
<clipPath id="clip0_290_10215">
<rect width="16" height="16" fill="white"/>
</clipPath>
</defs>
</svg>
