<svg width="24" height="24" viewBox="0 0 24 24" fill="none" xmlns="http://www.w3.org/2000/svg">
<path d="M12.1687 10.2318C13.8895 10.2318 15.2846 8.8368 15.2846 7.11592C15.2846 5.39505 13.8895 4 12.1687 4C10.4478 4 9.05273 5.39505 9.05273 7.11592C9.05273 8.8368 10.4478 10.2318 12.1687 10.2318Z" fill="#DADBDC"/>
<path d="M18.4718 10.2317C19.5597 10.2317 20.4416 9.34974 20.4416 8.26183C20.4416 7.17392 19.5597 6.29199 18.4718 6.29199C17.3839 6.29199 16.502 7.17392 16.502 8.26183C16.502 9.34974 17.3839 10.2317 18.4718 10.2317Z" fill="#DADBDC"/>
<path d="M5.86534 10.2317C6.95325 10.2317 7.83518 9.34974 7.83518 8.26183C7.83518 7.17392 6.95325 6.29199 5.86534 6.29199C4.77743 6.29199 3.89551 7.17392 3.89551 8.26183C3.89551 9.34974 4.77743 10.2317 5.86534 10.2317Z" fill="#DADBDC"/>
<path d="M7.80604 12.0007C7.03064 11.3654 6.32841 11.4495 5.43185 11.4495C4.09093 11.4495 3 12.534 3 13.8667V17.778C3 18.3568 3.4724 18.8274 4.05332 18.8274C6.56132 18.8274 6.25918 18.8728 6.25918 18.7193C6.25918 15.9477 5.9309 13.9151 7.80604 12.0007Z" fill="#DADBDC"/>
<path d="M13.0217 11.4636C11.4557 11.333 10.0946 11.4652 8.9205 12.4342C6.95579 14.008 7.33389 16.1269 7.33389 18.7191C7.33389 19.4049 7.89189 19.9733 8.58814 19.9733C16.1481 19.9733 16.449 20.2172 16.8973 19.2244C17.0443 18.8887 17.004 18.9954 17.004 15.7837C17.004 13.2327 14.7952 11.4636 13.0217 11.4636ZM18.9058 11.4493C18.0043 11.4493 17.3059 11.3661 16.5316 12.0005C18.3927 13.9007 18.0784 15.7946 18.0784 18.7191C18.0784 18.8736 17.8276 18.8272 20.2467 18.8272C20.8484 18.8272 21.3376 18.3398 21.3376 17.7406V13.8665C21.3376 12.5338 20.2467 11.4493 18.9058 11.4493Z" fill="#DADBDC"/>
</svg>
