<svg width="60" height="60" viewBox="0 0 60 60" fill="none" xmlns="http://www.w3.org/2000/svg">
<g clip-path="url(#clip0_221_10000)">
<path d="M30 60.0015C46.5685 60.0015 60 46.57 60 30.0015C60 13.4329 46.5685 0.00146484 30 0.00146484C13.4315 0.00146484 0 13.4329 0 30.0015C0 46.57 13.4315 60.0015 30 60.0015Z" fill="#414141"/>
<path fill-rule="evenodd" clip-rule="evenodd" d="M26.2216 31.4401C23.4981 31.4923 20.8237 32.2895 18.5103 33.669L18 33.9727V39.7827H34.6956V33.9946L34.2167 33.6868C31.8357 32.1564 29.0512 31.3736 26.2216 31.4391V31.4401Z" fill="#C29137"/>
<path d="M26.3477 21C24.0552 21 22.1738 22.8814 22.1738 25.1739C22.1738 27.4664 24.0552 29.3478 26.3477 29.3478C28.6403 29.3478 30.5217 27.4675 30.5217 25.1739C30.5217 22.8803 28.6413 21 26.3477 21Z" fill="#C29137"/>
<path fill-rule="evenodd" clip-rule="evenodd" d="M40.6057 24.1294L35.5897 28.632L34.0025 27.2056L32.6084 28.7603L35.5897 31.4337L41.9997 25.6842L40.6057 24.1294Z" fill="#C29137"/>
</g>
<defs>
<clipPath id="clip0_221_10000">
<rect width="60" height="60" fill="white"/>
</clipPath>
</defs>
</svg>
