<svg width="80" height="80" viewBox="0 0 80 80" fill="none" xmlns="http://www.w3.org/2000/svg">
<circle cx="40" cy="40" r="40" fill="#C29137"/>
<path d="M40 36.5937C43.7537 36.5937 46.7968 33.5506 46.7968 29.7968C46.7968 26.043 43.7537 23 40 23C36.2462 23 33.2031 26.043 33.2031 29.7968C33.2031 33.5506 36.2462 36.5937 40 36.5937Z" fill="#FEFEFE"/>
<path d="M53.75 36.5937C56.1231 36.5937 58.0468 34.6699 58.0468 32.2969C58.0468 29.9238 56.1231 28 53.75 28C51.3769 28 49.4531 29.9238 49.4531 32.2969C49.4531 34.6699 51.3769 36.5937 53.75 36.5937Z" fill="#FEFEFE"/>
<path d="M26.25 36.5937C28.6231 36.5937 30.5468 34.6699 30.5468 32.2969C30.5468 29.9238 28.6231 28 26.25 28C23.8769 28 21.9531 29.9238 21.9531 32.2969C21.9531 34.6699 23.8769 36.5937 26.25 36.5937Z" fill="#FEFEFE"/>
<path d="M30.4835 40.4526C28.7921 39.0668 27.2603 39.2502 25.3047 39.2502C22.3797 39.2502 20 41.6158 20 44.5229V53.0548C20 54.3173 21.0305 55.3439 22.2976 55.3439C27.7684 55.3439 27.1093 55.4429 27.1093 55.1079C27.1093 49.0622 26.3932 44.6286 30.4835 40.4526Z" fill="#FEFEFE"/>
<path d="M41.8593 39.2807C38.4434 38.9957 35.4743 39.2839 32.9133 41.3978C28.6276 44.8306 29.4524 49.4527 29.4524 55.1071C29.4524 56.6031 30.6696 57.8431 32.1883 57.8431C48.679 57.8431 49.3353 58.375 50.3132 56.2095C50.6339 55.4771 50.546 55.7099 50.546 48.704C50.546 43.1395 45.7278 39.2807 41.8593 39.2807ZM54.6944 39.2494C52.728 39.2494 51.2047 39.0678 49.5155 40.4517C53.5753 44.5967 52.8897 48.7279 52.8897 55.1071C52.8897 55.4442 52.3426 55.3431 57.6194 55.3431C58.9319 55.3431 59.9991 54.2798 59.9991 52.9728V44.522C59.9991 41.615 57.6194 39.2494 54.6944 39.2494Z" fill="#FEFEFE"/>
</svg>
