<svg width="24" height="24" viewBox="0 0 24 24" fill="none" xmlns="http://www.w3.org/2000/svg">
<path fill-rule="evenodd" clip-rule="evenodd" d="M11.5556 18.2221C11.5556 18.6931 11.7549 19.1457 12.109 19.479C12.4631 19.8123 12.944 19.9998 13.4445 19.9998H19.111C19.6115 19.9998 20.0924 19.8122 20.4465 19.479C20.8006 19.1457 20.9999 18.6931 20.9999 18.2221V14.6665C20.9999 14.1954 20.8005 13.7428 20.4465 13.4096C20.0924 13.0763 19.6115 12.8887 19.111 12.8887H13.4445C12.944 12.8887 12.4631 13.0763 12.109 13.4096C11.7549 13.7429 11.5556 14.1954 11.5556 14.6665V18.2221ZM7.77778 12.8889H5.88887C5.38817 12.8889 4.90748 13.0765 4.55339 13.4098C4.1991 13.743 4 14.1956 4 14.6667V18.2223C4 18.6933 4.19912 19.1459 4.55339 19.4792C4.9075 19.8124 5.38817 20 5.88887 20H7.77778C8.27829 20 8.75898 19.8124 9.11326 19.4792C9.46737 19.1459 9.66665 18.6933 9.66665 18.2223V14.6667C9.66665 14.1956 9.46734 13.743 9.11326 13.4098C8.75896 13.0765 8.27829 12.8889 7.77778 12.8889V12.8889ZM21 5.77775C21 5.30651 20.8006 4.8541 20.4466 4.52084C20.0924 4.18738 19.6116 4 19.1111 4H5.88892C5.38822 4 4.90753 4.18741 4.55344 4.52084C4.19914 4.85412 4.00005 5.30651 4.00005 5.77775V9.33333C4.00005 9.80439 4.19917 10.2568 4.55344 10.5902C4.90755 10.9235 5.38822 11.1111 5.88892 11.1111H19.1111C20.1547 11.1111 21 10.3155 21 9.33329L21 5.77775Z" fill="#DADBDC"/>
</svg>
