<svg width="80" height="80" viewBox="0 0 80 80" fill="none" xmlns="http://www.w3.org/2000/svg">
<circle cx="40" cy="40" r="40" fill="#C29137"/>
<path d="M48.4372 35.1562C46.6281 35.1562 45.1562 36.6281 45.1562 38.4373C45.1562 40.8385 47.6613 42.422 49.8231 41.4102L49.2467 40.8337C48.7891 40.3762 48.7891 39.6341 49.2467 39.1765C49.7043 38.7189 50.4463 38.7189 50.904 39.1765L51.4539 39.7264C52.3791 37.5704 50.7873 35.1562 48.4372 35.1562Z" fill="#FEFEFE"/>
<path d="M56.4843 25.5078H23.5156C21.5771 25.5078 20 27.0849 20 29.0234V47.852C20 49.7906 21.5771 51.3677 23.5156 51.3677H37.0703L39.0625 54.0238C39.5314 54.6491 40.4696 54.6477 40.9375 54.0238L42.9297 51.3677H56.4843C58.4229 51.3677 59.9999 49.7906 59.9999 47.852V29.0234C59.9999 27.0849 58.4228 25.5078 56.4843 25.5078ZM30.374 37.2147C31.0212 37.2147 31.5459 37.7394 31.5459 38.3866C31.5459 39.0337 31.0212 39.5584 30.374 39.5584H28.2473V42.8905C28.2473 43.5377 27.7226 44.0623 27.0755 44.0623C26.4283 44.0623 25.9036 43.5377 25.9036 42.8905V34.05C25.9036 33.4028 26.4283 32.8781 27.0755 32.8781H30.6585C31.3057 32.8781 31.8304 33.4028 31.8304 34.05C31.8304 34.6972 31.3057 35.2219 30.6585 35.2219H28.2473V37.2147H30.374ZM40.9218 43.9869C40.3161 44.2155 39.6402 43.9096 39.4116 43.3042L38.8724 41.8755H35.1174L34.572 43.3077C34.3412 43.9134 33.6633 44.2156 33.0598 43.9856C32.455 43.7553 32.1514 43.0783 32.3817 42.4734L35.7258 33.693C35.9168 33.1847 36.4161 32.8134 37.0065 32.8128C37.2791 32.8119 37.5458 32.8924 37.7724 33.044C37.999 33.1957 38.1751 33.4116 38.2782 33.664C38.2895 33.6916 38.141 33.2989 41.6045 42.4767C41.833 43.0822 41.5273 43.7584 40.9218 43.9869ZM53.7534 43.6832C53.2958 44.1409 52.5538 44.1409 52.0962 43.6832L51.5396 43.1266C50.6497 43.7172 49.5834 44.0623 48.4376 44.0623C45.336 44.0623 42.8129 41.5391 42.8129 38.4377C42.8129 35.3362 45.336 32.8129 48.4376 32.8129C51.539 32.8129 54.0623 35.3362 54.0623 38.4377C54.0623 39.547 53.7382 40.5816 53.1815 41.4539L53.7534 42.0259C54.2111 42.4835 54.2111 43.2255 53.7534 43.6832Z" fill="#FEFEFE"/>
<path d="M36.0098 39.5326H37.9877L37.0033 36.9238L36.0098 39.5326Z" fill="#FEFEFE"/>
</svg>
