<svg width="24" height="24" viewBox="0 0 24 24" fill="none" xmlns="http://www.w3.org/2000/svg">
<path d="M17.2504 12.0002C16.8357 12.0002 16.5005 12.3363 16.5005 12.7502V18.7505C16.5005 19.1637 16.1644 19.5005 15.7505 19.5005H5.25008C4.83603 19.5005 4.5001 19.1637 4.5001 18.7505V8.25008C4.5001 7.83684 4.83603 7.5001 5.25008 7.5001H11.2503C11.6651 7.5001 12.0003 7.16406 12.0003 6.75012C12.0003 6.33607 11.6651 6 11.2503 6H5.25008C4.00955 6 3 7.00955 3 8.25008V18.7505C3 19.991 4.00955 21.0006 5.25008 21.0006H15.7505C16.991 21.0006 18.0006 19.991 18.0006 18.7505V12.7502C18.0006 12.3355 17.6652 12.0002 17.2504 12.0002Z" fill="#FEFEFE"/>
<path d="M10.0309 11.3164C9.97877 11.3688 9.94307 11.4353 9.92817 11.5076L9.39792 14.1598C9.37321 14.2828 9.4122 14.4095 9.50065 14.4988C9.53556 14.5336 9.57698 14.5611 9.62255 14.5799C9.66812 14.5987 9.71694 14.6083 9.76623 14.6082C9.79014 14.6082 9.815 14.606 9.83971 14.6008L12.4911 14.0706C12.5646 14.0555 12.6313 14.0203 12.6831 13.9677L18.6173 8.03348L15.9659 5.38226L10.0309 11.3164ZM20.4503 3.54848C19.7191 2.81717 18.5295 2.81717 17.7989 3.54848L16.7609 4.58644L19.4123 7.2378L20.4503 6.1997C20.8043 5.84648 20.9993 5.3754 20.9993 4.87441C20.9993 4.37342 20.8043 3.90238 20.4503 3.54848Z" fill="#FEFEFE"/>
</svg>
