<svg width="80" height="80" viewBox="0 0 80 80" fill="none" xmlns="http://www.w3.org/2000/svg">
<circle cx="40" cy="40" r="40" fill="#C29137"/>
<path d="M49.8877 38.2325C49.7887 38.0139 49.6287 37.8285 49.4269 37.6986C49.2251 37.5686 48.9901 37.4997 48.7502 37.5H43.7502V21.25C43.7502 20.56 43.1902 20 42.5002 20H37.5002C36.8102 20 36.2502 20.56 36.2502 21.25V37.5H31.2502C31.0103 37.5002 30.7755 37.5693 30.5738 37.6992C30.3722 37.8291 30.2121 38.0142 30.1127 38.2325C29.9077 38.68 29.9877 39.2025 30.3102 39.5725L39.0602 49.5725C39.1772 49.7068 39.3216 49.8145 39.4838 49.8882C39.6459 49.962 39.822 50.0001 40.0002 50C40.3602 50 40.7027 49.8425 40.9402 49.5725L49.6902 39.5725C50.0152 39.205 50.0902 38.68 49.8877 38.2325Z" fill="#FEFEFE"/>
<path d="M53.75 47.5V55H26.25V47.5H21.25V57.5C21.25 58.8825 22.37 60 23.75 60H56.25C57.6325 60 58.75 58.8825 58.75 57.5V47.5H53.75Z" fill="#FEFEFE"/>
</svg>
