<svg width="24" height="24" viewBox="0 0 24 24" fill="none" xmlns="http://www.w3.org/2000/svg">
<path d="M4 11.92C8.39998 18.48 15.6 18.48 20 11.92C15.6 5.36 8.39998 5.36 4 11.92ZM12 15.12C10.24 15.12 8.8 13.68 8.8 11.92C8.8 10.16 10.24 8.72 12 8.72C13.76 8.72 15.2 10.16 15.2 11.92C15.2 13.68 13.76 15.12 12 15.12Z" fill="#F2F3F4"/>
<path d="M12.0004 13.5203C12.8841 13.5203 13.6004 12.804 13.6004 11.9203C13.6004 11.0367 12.8841 10.3203 12.0004 10.3203C11.1167 10.3203 10.4004 11.0367 10.4004 11.9203C10.4004 12.804 11.1167 13.5203 12.0004 13.5203Z" fill="#F2F3F4"/>
</svg>
