<svg width="16" height="16" viewBox="0 0 16 16" fill="none" xmlns="http://www.w3.org/2000/svg">
<path d="M12.6281 8C12.6281 7.862 12.6219 7.73 12.6095 7.592L13.7573 6.746C14.0041 6.566 14.072 6.23 13.9177 5.966L12.7638 4.028C12.6898 3.90091 12.5701 3.80489 12.4278 3.75837C12.2854 3.71186 12.1304 3.71814 11.9925 3.776L10.6658 4.322C10.4374 4.166 10.1968 4.028 9.94378 3.914L9.76483 2.528C9.72781 2.228 9.46247 2 9.15393 2H6.85224C6.53753 2 6.27219 2.228 6.23517 2.528L6.05622 3.914C5.80321 4.028 5.56256 4.166 5.33424 4.322L4.00753 3.776C3.72367 3.656 3.39045 3.764 3.23618 4.028L2.08225 5.972C1.92799 6.236 1.99586 6.566 2.24269 6.752L3.39045 7.598C3.36487 7.86743 3.36487 8.13857 3.39045 8.408L2.24269 9.254C1.99586 9.434 1.92799 9.77 2.08225 10.034L3.23618 11.972C3.39045 12.236 3.72367 12.344 4.00753 12.224L5.33424 11.678C5.56256 11.834 5.80321 11.972 6.05622 12.086L6.23517 13.472C6.27219 13.772 6.53753 14 6.84607 14H9.14776C9.4563 14 9.72164 13.772 9.75866 13.472L9.93761 12.086C10.1906 11.972 10.4313 11.834 10.6596 11.678L11.9863 12.224C12.2702 12.344 12.6034 12.236 12.7576 11.972L13.9116 10.034C14.0658 9.77 13.998 9.44 13.7511 9.254L12.6034 8.408C12.6219 8.27 12.6281 8.138 12.6281 8ZM8.02468 10.1C6.83373 10.1 5.86492 9.158 5.86492 8C5.86492 6.842 6.83373 5.9 8.02468 5.9C9.21564 5.9 10.1844 6.842 10.1844 8C10.1844 9.158 9.21564 10.1 8.02468 10.1Z" fill="#DADBDC"/>
</svg>
