<svg width="24" height="24" viewBox="0 0 24 24" fill="none" xmlns="http://www.w3.org/2000/svg">
<path d="M12 3C7.02571 3 3 7.02525 3 12C3 16.9742 7.02525 21 12 21C16.9743 21 21 16.9747 21 12C21 7.02571 16.9747 3 12 3ZM11.7337 16.2124C11.2243 16.2124 10.8333 15.7859 10.8333 15.3002C10.8333 14.8026 11.2361 14.388 11.7337 14.388C12.2313 14.388 12.6459 14.8026 12.6459 15.3002C12.6459 15.7859 12.2431 16.2124 11.7337 16.2124ZM13.0842 11.604C12.4326 12.1134 12.4207 12.4688 12.4207 13.0848C12.4207 13.31 12.3023 13.5706 11.7218 13.5706C11.2361 13.5706 11.0703 13.3929 11.0703 12.7768C11.0703 11.758 11.5204 11.2723 11.864 10.9761C12.2549 10.6444 12.9184 10.2772 12.9184 9.6375C12.9184 9.09251 12.4445 8.83189 11.8521 8.83189C10.6438 8.83189 10.9044 9.74413 10.2647 9.74413C9.9448 9.74413 9.55386 9.53084 9.55386 9.06885C9.55386 8.42914 10.2883 7.48137 11.8877 7.48137C13.404 7.48137 14.411 8.32252 14.411 9.43609C14.411 10.5497 13.404 11.3552 13.0842 11.604Z" fill="#FEFEFE"/>
</svg>
