<svg width="12" height="12" viewBox="0 0 12 12" fill="none" xmlns="http://www.w3.org/2000/svg">
<g clip-path="url(#clip0_1532_28627)">
<path d="M11.2787 5.15688C11.2296 5.14891 11.18 5.14523 11.1302 5.14588H2.66446L2.84906 5.06002C3.0295 4.97461 3.19366 4.85839 3.33417 4.71658L5.70818 2.34257C6.02084 2.0441 6.07338 1.56396 5.83267 1.20493C5.55253 0.822348 5.01529 0.739279 4.63268 1.01942C4.60177 1.04207 4.5724 1.06675 4.54478 1.09331L0.251816 5.38628C-0.0836792 5.7214 -0.0839744 6.26503 0.251145 6.60052L0.251816 6.60119L4.54478 10.8942C4.88055 11.229 5.42417 11.2282 5.75902 10.8925C5.78537 10.866 5.80997 10.8379 5.83267 10.8083C6.07338 10.4493 6.02084 9.96913 5.70818 9.67067L3.33846 7.29236C3.21249 7.16625 3.06766 7.06052 2.90916 6.97897L2.65159 6.86306H11.083C11.5216 6.87935 11.9064 6.57297 11.9888 6.14185C12.0647 5.67378 11.7468 5.23281 11.2787 5.15688Z" fill="#C2C2C3"/>
</g>
<defs>
<clipPath id="clip0_1532_28627">
<rect width="12" height="12" fill="white"/>
</clipPath>
</defs>
</svg>
