<svg width="24" height="24" viewBox="0 0 24 24" fill="none" xmlns="http://www.w3.org/2000/svg">
<path fill-rule="evenodd" clip-rule="evenodd" d="M11.7938 18.8146V19.8113C11.7938 20.6106 11.3955 21.3007 10.7032 21.7003C10.3702 21.8925 9.99846 21.9998 9.61307 22C9.22733 22.0002 8.85573 21.8927 8.52245 21.7003L4.09058 19.1415C3.39828 18.7418 3 18.052 3 17.2526V4.18117C3 2.9784 3.97844 2 5.18117 2H14.9417C16.1445 2 17.1231 2.97832 17.1231 4.18117V6.93659C17.1231 7.33186 16.8021 7.6528 16.4068 7.6528C16.0115 7.6528 15.6908 7.3319 15.6908 6.93659V4.18117C15.6908 3.76816 15.3547 3.43211 14.9417 3.43211H6.38894L10.7032 5.92339C11.3952 6.323 11.7938 7.01284 11.7938 7.81194V17.3824H14.9417C15.3547 17.3824 15.6908 17.0465 15.6908 16.6334V14.218C15.6908 13.8224 16.0113 13.5018 16.4068 13.5018C16.8023 13.5018 17.1231 13.8225 17.1231 14.218V16.6334C17.1231 17.8363 16.1445 18.8146 14.9417 18.8146H11.7938ZM18.4299 11.1233L17.6411 11.9121C17.3615 12.1917 17.3616 12.6451 17.6411 12.9247C17.7076 12.9913 17.7865 13.0441 17.8734 13.08C17.9603 13.116 18.0535 13.1344 18.1475 13.1343C18.2416 13.1345 18.3348 13.116 18.4217 13.0801C18.5086 13.0441 18.5876 12.9913 18.6541 12.9247L20.665 10.9135C20.9445 10.6339 20.9446 10.1808 20.665 9.90116L18.6541 7.89022C18.3744 7.61054 17.921 7.61065 17.6412 7.89018C17.3616 8.16956 17.3617 8.62311 17.6412 8.90256L18.4299 9.69108H13.1463C12.7506 9.69108 12.4302 10.0117 12.4302 10.4073C12.4302 10.803 12.7506 11.1234 13.1463 11.1234H18.4299V11.1233Z" fill="#DADBDC"/>
</svg>
