<svg width="14" height="13" viewBox="0 0 14 13" fill="none" xmlns="http://www.w3.org/2000/svg">
<path d="M6.56442 0.791084C6.75568 0.45176 7.24432 0.451762 7.43557 0.791083L8.87893 3.35185C9.09298 3.73161 9.46165 3.99947 9.88898 4.08569L12.7704 4.66708C13.1522 4.74412 13.3032 5.20884 13.0396 5.4956L11.0502 7.65963C10.7552 7.98056 10.6144 8.41396 10.6644 8.84701L11.0019 11.7671C11.0466 12.154 10.6513 12.4412 10.2971 12.2791L7.62424 11.0558C7.22785 10.8744 6.77215 10.8744 6.37576 11.0558L3.70288 12.2791C3.3487 12.4412 2.95338 12.154 2.9981 11.7671L3.33558 8.84701C3.38563 8.41396 3.24481 7.98056 2.94978 7.65963L0.96037 5.4956C0.696756 5.20884 0.847754 4.74412 1.22957 4.66708L4.11102 4.08569C4.53834 3.99947 4.90702 3.73161 5.12107 3.35185L6.56442 0.791084Z" stroke="#FFDF00"/>
</svg>
