<svg width="150" height="150" viewBox="0 0 150 150" fill="none" xmlns="http://www.w3.org/2000/svg">
<circle cx="75" cy="75" r="75" fill="#A6A6A7"/>
<path d="M107.879 78.4619H113.914C113.736 77.3969 113.736 75.977 113.914 74.912H107.879C107.524 70.1195 106.282 65.6821 104.329 61.5996L109.476 58.5822C108.766 57.6947 108.056 56.6297 107.701 55.5647L102.554 58.5822C100.069 54.6772 96.6967 51.3048 92.7917 48.8198L95.8092 43.6724C94.7442 43.1399 93.6792 42.6074 92.7917 41.8974L89.7742 47.0448C85.6918 44.9149 81.2544 43.6724 76.4619 43.4949V37.46C75.3969 37.6375 74.1544 37.6375 72.912 37.46V43.4949C68.1195 43.6724 63.6821 44.9149 59.5996 47.0448L56.5822 41.8974C55.6947 42.6074 54.6297 43.3174 53.5647 43.6724L56.5822 48.8198C52.6772 51.3048 49.3048 54.6772 46.8198 58.5822L41.6724 55.5647C41.1399 56.9847 40.6074 57.6947 39.8974 58.5822L45.0448 61.5996C42.9149 65.6821 41.6724 70.1195 41.4949 74.912H35.46C35.6375 75.977 35.6375 77.3969 35.46 78.4619H41.4949C41.6724 83.0769 42.9149 87.6918 45.0448 91.7743L39.8974 94.7917C40.6074 95.6792 41.1399 96.7442 41.6724 97.8092L46.8198 94.7917C47.8848 96.5667 49.3048 98.1642 50.7248 99.7616C51.4347 100.472 52.4997 100.472 53.2097 99.7616C53.9197 99.0517 53.9197 97.9867 53.2097 97.2767C47.8848 91.7742 44.8673 84.3193 44.8673 76.6869C44.8673 60.3572 58.1797 46.8673 74.6869 46.8673C91.0167 46.8673 104.507 60.1797 104.507 76.6869C104.507 84.8518 100.957 92.8392 94.9217 98.5192C94.2117 99.2291 94.2117 100.294 94.9217 101.004C95.6317 101.714 96.6967 101.714 97.4066 101.004C99.3591 99.2291 101.134 96.9217 102.554 94.7917L107.701 97.8092C108.234 96.5667 108.766 95.6792 109.476 94.7917L104.329 91.7743C106.459 87.6918 107.524 83.0769 107.879 78.4619Z" fill="#6D5C4C"/>
<path d="M83.0291 75.0878C82.3191 74.7328 81.4316 74.9103 80.8991 75.4428L74.6867 81.6552L68.2968 75.2653C67.7643 74.7328 66.8768 74.5553 66.1668 74.9103C61.0194 77.5727 58.002 82.7202 58.002 88.4001V109.7C58.002 110.587 58.8894 111.475 59.7769 111.475H63.1494L62.4394 129.225C62.4394 130.29 63.1494 131 64.2144 131H70.2493C71.1368 131 71.8468 130.467 72.0243 129.58L74.6867 117.51L77.3492 129.58C77.5267 130.467 78.2367 131 79.1242 131H85.1591C86.2241 131 86.9341 130.112 86.9341 129.225L86.2241 111.475H89.5965C90.484 111.475 91.3715 110.587 91.3715 109.7V88.4001C91.3715 82.8977 88.1766 77.7502 83.0291 75.0878Z" fill="#6D5C4C"/>
<path d="M24.6324 84.3195C28.8477 84.3195 32.2648 80.9023 32.2648 76.6871C32.2648 72.4718 28.8477 69.0547 24.6324 69.0547C20.4171 69.0547 17 72.4718 17 76.6871C17 80.9023 20.4171 84.3195 24.6324 84.3195Z" fill="#C29137"/>
<path d="M27.4719 58.2263C31.0218 60.3563 35.6368 59.1138 37.7668 55.3864C39.8967 51.6589 38.4767 47.044 34.9268 45.0915C31.3768 42.9615 26.7619 44.204 24.6319 47.9315C22.6795 51.4814 23.9219 56.0964 27.4719 58.2263Z" fill="#C29137"/>
<path d="M74.6863 75.0893C80.8621 75.0893 85.8686 70.0828 85.8686 63.907C85.8686 57.7311 80.8621 52.7246 74.6863 52.7246C68.5104 52.7246 63.5039 57.7311 63.5039 63.907C63.5039 70.0828 68.5104 75.0893 74.6863 75.0893Z" fill="#6D5C4C"/>
<path d="M53.3865 39.7658C56.9365 37.8133 58.179 33.0209 56.049 29.4709C53.919 25.921 49.3041 24.6785 45.7541 26.631C42.2042 28.5834 40.9617 33.3759 42.9142 36.9258C45.2216 40.6533 49.8366 41.8958 53.3865 39.7658Z" fill="#C29137"/>
<path d="M74.6861 34.2648C78.9014 34.2648 82.3185 30.8477 82.3185 26.6324C82.3185 22.4171 78.9014 19 74.6861 19C70.4709 19 67.0537 22.4171 67.0537 26.6324C67.0537 30.8477 70.4709 34.2648 74.6861 34.2648Z" fill="#C29137"/>
<path d="M27.4719 95.1459C23.9219 97.2759 22.6795 101.891 24.6319 105.441C26.0519 107.926 28.5369 109.168 31.1993 109.168C36.8793 109.168 40.6067 102.956 37.7668 97.8084C35.6368 94.4359 31.0218 93.1934 27.4719 95.1459ZM95.986 39.7666C99.3585 41.7191 104.151 40.6541 106.281 37.1042C108.411 33.5542 107.168 28.9393 103.618 26.8093C99.8909 24.6793 95.4535 25.9218 93.3235 29.6493C91.1936 33.0217 92.436 37.6367 95.986 39.7666Z" fill="#C29137"/>
<path d="M124.919 84.3195C129.134 84.3195 132.551 80.9023 132.551 76.6871C132.551 72.4718 129.134 69.0547 124.919 69.0547C120.703 69.0547 117.286 72.4718 117.286 76.6871C117.286 80.9023 120.703 84.3195 124.919 84.3195Z" fill="#C29137"/>
<path d="M121.901 58.2277C125.451 56.0977 126.694 51.4828 124.564 47.9328C122.434 44.3829 117.819 43.1404 114.269 45.0929C110.719 47.0453 109.476 51.8378 111.429 55.3877C113.736 58.9377 118.174 60.1802 121.901 58.2277ZM121.901 95.1472C116.931 92.3072 110.541 95.8572 110.541 101.715C110.541 104.377 111.961 106.862 114.269 108.282C115.511 108.992 116.754 109.347 117.996 109.347C120.659 109.347 123.144 107.927 124.564 105.62C125.629 103.845 125.806 101.892 125.274 99.9396C124.919 97.8097 123.676 96.2122 121.901 95.1472Z" fill="#C29137"/>
</svg>
