<svg width="80" height="80" viewBox="0 0 80 80" fill="none" xmlns="http://www.w3.org/2000/svg">
<circle cx="40" cy="40" r="40" fill="#C29137"/>
<g clip-path="url(#clip0_300_11539)">
<path fill-rule="evenodd" clip-rule="evenodd" d="M39.7127 53.6293V55.6227C39.7127 57.2213 38.9159 58.6014 37.5315 59.4006C36.8654 59.7852 36.122 59.9997 35.3512 60.0001C34.5797 60.0005 33.8365 59.7855 33.1699 59.4006L24.3062 54.2831C22.9216 53.4837 22.125 52.1041 22.125 50.5052V24.3623C22.125 21.9568 24.0819 20 26.4873 20H46.0085C48.4141 20 50.3712 21.9566 50.3712 24.3623V29.8732C50.3712 30.6637 49.7293 31.3056 48.9388 31.3056C48.148 31.3056 47.5066 30.6638 47.5066 29.8732V24.3623C47.5066 23.5363 46.8345 22.8642 46.0085 22.8642H28.9029L37.5315 27.8468C38.9155 28.646 39.7127 30.0257 39.7127 31.6239V50.7648H46.0085C46.8345 50.7648 47.5066 50.093 47.5066 49.267V44.436C47.5066 43.6449 48.1476 43.0036 48.9388 43.0036C49.7296 43.0036 50.3712 43.6451 50.3712 44.436V49.267C50.3712 51.6727 48.4141 53.6293 46.0085 53.6293H39.7127ZM52.9848 38.2467L51.4073 39.8241C50.848 40.3834 50.8482 41.2902 51.4073 41.8495C51.5402 41.9826 51.6981 42.0882 51.8719 42.1601C52.0457 42.232 52.232 42.2689 52.4201 42.2686C52.6082 42.269 52.7946 42.2321 52.9685 42.1602C53.1424 42.0883 53.3003 41.9827 53.4332 41.8495L57.455 37.827C58.0141 37.2678 58.0142 36.3616 57.455 35.8023L53.4332 31.7805C52.8738 31.2211 51.967 31.2213 51.4074 31.7804C50.8483 32.3391 50.8484 33.2462 51.4074 33.8052L52.9848 35.3822H42.4176C41.6262 35.3822 40.9855 36.0234 40.9855 36.8147C40.9855 37.6059 41.6263 38.2468 42.4176 38.2468H52.9848V38.2467Z" fill="#FEFEFE"/>
</g>
<defs>
<clipPath id="clip0_300_11539">
<rect width="40" height="40" fill="white" transform="translate(20 20)"/>
</clipPath>
</defs>
</svg>
