<svg width="24" height="25" viewBox="0 0 24 25" fill="none" xmlns="http://www.w3.org/2000/svg">
<path d="M18.2824 12.3971L18.2849 12.3992V2.95676C18.2849 2.86204 18.2472 2.77119 18.1803 2.70422C18.1133 2.63724 18.0224 2.59961 17.9277 2.59961H5.42773V20.4567H13.9992V15.7424C13.9991 15.4903 14.0525 15.241 14.1559 15.011C14.2593 14.781 14.4102 14.5755 14.5988 14.4081L16.8588 12.3988C17.2643 12.0376 17.876 12.0368 18.2824 12.3971ZM13.642 11.171H10.0705C9.97582 11.171 9.88497 11.1334 9.818 11.0664C9.75102 10.9995 9.71339 10.9086 9.71339 10.8139C9.71339 10.7192 9.75102 10.6283 9.818 10.5613C9.88497 10.4944 9.97582 10.4567 10.0705 10.4567H13.642C13.7367 10.4567 13.8275 10.4944 13.8945 10.5613C13.9615 10.6283 13.9991 10.7192 13.9991 10.8139C13.9991 10.9086 13.9615 10.9995 13.8945 11.0664C13.8275 11.1334 13.7367 11.171 13.642 11.171ZM15.0706 9.74245H8.64199C8.54726 9.74245 8.45642 9.70482 8.38944 9.63784C8.32247 9.57086 8.28484 9.48002 8.28484 9.3853C8.28484 9.29058 8.32247 9.19974 8.38944 9.13276C8.45642 9.06578 8.54726 9.02815 8.64199 9.02815H15.0705C15.2678 9.02815 15.4277 9.18803 15.4277 9.3853C15.4277 9.58256 15.2678 9.74245 15.0706 9.74245ZM7.57058 8.31389C6.97886 8.31389 6.49914 7.83421 6.49914 7.24245V5.0996C6.49914 4.50789 6.97883 4.02816 7.57058 4.02816H16.142C16.7337 4.02816 17.2134 4.50789 17.2134 5.0996V7.24245C17.2134 7.83417 16.7337 8.31389 16.142 8.31389H7.57058Z" fill="#FEFEFE"/>
<path d="M7.57144 4.74246H16.1429C16.2376 4.74246 16.3284 4.78008 16.3954 4.84706C16.4624 4.91404 16.5 5.00488 16.5 5.0996V7.24245C16.5 7.33717 16.4624 7.42802 16.3954 7.49499C16.3284 7.56197 16.2376 7.5996 16.1429 7.5996H7.57144C7.47672 7.5996 7.38587 7.56197 7.3189 7.49499C7.25192 7.42802 7.21429 7.33717 7.21429 7.24245V5.0996C7.21429 5.00488 7.25192 4.91404 7.3189 4.84706C7.38587 4.78008 7.47672 4.74246 7.57144 4.74246ZM20.4286 22.2424V15.7424C20.4285 15.5912 20.3964 15.4417 20.3344 15.3038C20.2724 15.1658 20.182 15.0425 20.0689 14.9421L18.3929 13.451L18.3879 13.4467L17.8079 12.931C17.7425 12.8728 17.6579 12.8406 17.5704 12.8406C17.4828 12.8406 17.3983 12.8728 17.3329 12.931L15.0729 14.94C14.9598 15.0408 14.8693 15.1644 14.8075 15.3028C14.7457 15.4411 14.7139 15.591 14.7143 15.7425V22.2425C14.7143 22.3372 14.7519 22.428 14.8189 22.495C14.8859 22.562 14.9767 22.5996 15.0715 22.5996H20.0715C20.1662 22.5996 20.257 22.5619 20.324 22.495C20.3909 22.428 20.4286 22.3371 20.4286 22.2424ZM17.9286 20.7631V21.171C17.9286 21.2657 17.8909 21.3565 17.824 21.4235C17.757 21.4905 17.6661 21.5281 17.5714 21.5281C17.4767 21.5281 17.3859 21.4905 17.3189 21.4235C17.2519 21.3565 17.2143 21.2657 17.2143 21.171V20.7642C16.9901 20.7067 16.7833 20.5955 16.6116 20.4404C16.4399 20.2852 16.3084 20.0907 16.2286 19.8735C16.2052 19.8142 16.1982 19.7497 16.2081 19.6867C16.2181 19.6237 16.2448 19.5645 16.2853 19.5153C16.3259 19.4662 16.3789 19.4287 16.4388 19.4069C16.4988 19.3851 16.5634 19.3797 16.6261 19.3914C16.6888 19.403 16.7473 19.4313 16.7954 19.4732C16.8435 19.515 16.8795 19.569 16.8996 19.6295C17.0235 19.97 17.3828 20.1638 17.7354 20.0803C18.0879 19.9968 18.3222 19.6626 18.2803 19.3027C18.2385 18.9428 17.9337 18.6713 17.5714 18.6709C16.8529 18.6718 16.246 18.1379 16.1553 17.4252C16.0646 16.7125 16.5184 16.0436 17.2142 15.8645V15.4567C17.2142 15.3619 17.2519 15.2711 17.3188 15.2041C17.3858 15.1371 17.4767 15.0995 17.5714 15.0995C17.6661 15.0995 17.7569 15.1371 17.8239 15.2041C17.8909 15.2711 17.9285 15.3619 17.9285 15.4567V15.8635C18.1566 15.9217 18.3667 16.0356 18.54 16.1948C18.7134 16.354 18.8446 16.5537 18.9221 16.7759C18.9385 16.8205 18.9459 16.8679 18.9437 16.9154C18.9416 16.9629 18.93 17.0094 18.9097 17.0524C18.8893 17.0953 18.8606 17.1338 18.8252 17.1655C18.7899 17.1972 18.7485 17.2215 18.7036 17.237C18.6587 17.2525 18.6111 17.2589 18.5637 17.2558C18.5163 17.2527 18.47 17.2402 18.4275 17.219C18.385 17.1978 18.3471 17.1683 18.3161 17.1322C18.2852 17.0962 18.2617 17.0544 18.2471 17.0092C18.1283 16.6652 17.77 16.4656 17.4151 16.5455C17.0601 16.6254 16.822 16.9594 16.862 17.321C16.9021 17.6827 17.2076 17.9564 17.5714 17.9566C18.2899 17.9558 18.8968 18.4897 18.9875 19.2024C19.0782 19.9152 18.6244 20.5841 17.9286 20.7631ZM4.7143 2.59961C4.3198 2.59961 4 2.91941 4 3.3139V20.6546C4.21626 20.5263 4.46284 20.458 4.7143 20.4567V2.59961ZM4.7143 22.5996H14.0657C14.0234 22.4852 14.0012 22.3644 14 22.2424V21.171H4.7143C4.3198 21.171 4 21.4908 4 21.8853C4 22.2798 4.3198 22.5996 4.7143 22.5996Z" fill="#FEFEFE"/>
</svg>
