<svg width="60" height="60" viewBox="0 0 60 60" fill="none" xmlns="http://www.w3.org/2000/svg">
<rect x="0.5" y="0.5" width="59" height="59" rx="29.5" fill="#414141"/>
<path d="M26.7103 36.8345L24.315 38.0017L22.65 31.8526L24.9919 30.6817C25.8729 30.241 26.8445 30.0115 27.8297 30.0114H33.6244C34.3913 30.0114 35.0578 30.6526 35.0578 31.4448C35.0578 32.1695 34.4719 32.8126 33.7453 32.8717L31.8094 33.032C30.5738 33.1361 30.7275 35.0026 31.9641 34.9014L33.8991 34.7411C35.3981 34.6173 36.6094 33.4773 36.8756 32.0392L40.5253 31.0379C40.8405 30.9484 41.1779 30.9809 41.4702 31.1289C41.7625 31.2769 41.9883 31.5297 42.1027 31.8367C42.217 32.1438 42.2115 32.4827 42.0872 32.7858C41.9628 33.089 41.7289 33.3342 41.4319 33.4726L33.6525 37.6848C32.7958 38.1489 31.7921 38.2612 30.8541 37.9979L26.7103 36.8345ZM22.5666 40.1139L16.875 43.1251V33.2814L20.1356 31.8189C20.1974 31.7912 20.2645 31.7772 20.3322 31.7779C20.3999 31.7786 20.4666 31.7939 20.5278 31.8229C20.589 31.8518 20.6432 31.8937 20.6867 31.9456C20.7302 31.9975 20.7619 32.0582 20.7797 32.1236L22.7991 39.5767C22.827 39.6793 22.8192 39.7884 22.777 39.886C22.7347 39.9836 22.6605 40.064 22.5666 40.1139ZM33.8597 16.3576L33.0703 17.4339C33.0396 17.4754 32.9978 17.5073 32.9496 17.5259C32.9015 17.5445 32.849 17.549 32.7984 17.5389C32.188 17.4226 31.5611 17.4226 30.9506 17.5389C30.9002 17.5489 30.8479 17.5444 30.7999 17.5258C30.7519 17.5072 30.7102 17.4753 30.6797 17.4339L29.8903 16.3576C29.8493 16.3018 29.7891 16.2631 29.7213 16.2489C29.6535 16.2347 29.5828 16.246 29.5228 16.2807L27.6647 17.3532C27.6047 17.388 27.5596 17.4436 27.538 17.5095C27.5163 17.5754 27.5197 17.6469 27.5475 17.7104L28.0866 18.9357C28.1074 18.983 28.1142 19.0352 28.1062 19.0862C28.0982 19.1372 28.0758 19.1849 28.0416 19.2236C27.6368 19.6939 27.3222 20.2348 27.1134 20.8192C27.0969 20.8679 27.0669 20.9109 27.0269 20.9433C26.987 20.9757 26.9386 20.996 26.8875 21.002L25.5628 21.1473C25.4939 21.1549 25.4302 21.1878 25.384 21.2395C25.3378 21.2913 25.3123 21.3582 25.3125 21.4276V23.5736C25.3125 23.6428 25.3381 23.7095 25.3843 23.7611C25.4305 23.8126 25.494 23.8453 25.5628 23.8529L26.8875 23.9982C26.9386 24.0041 26.987 24.0244 27.0271 24.0568C27.0671 24.0892 27.097 24.1323 27.1134 24.1811C27.3225 24.7717 27.6413 25.3107 28.0416 25.7767C28.0758 25.8153 28.0982 25.863 28.1062 25.914C28.1142 25.965 28.1074 26.0172 28.0866 26.0645L27.5475 27.2898C27.5195 27.3533 27.516 27.4249 27.5377 27.4909C27.5593 27.5568 27.6045 27.6124 27.6647 27.647L29.5228 28.7204C29.5828 28.7551 29.6535 28.7665 29.7213 28.7523C29.7891 28.7381 29.8493 28.6994 29.8903 28.6436L30.6797 27.5673C30.7102 27.5259 30.7519 27.494 30.7999 27.4754C30.8479 27.4568 30.9002 27.4523 30.9506 27.4623C31.561 27.5791 32.188 27.5791 32.7984 27.4623C32.8489 27.4523 32.9012 27.4568 32.9492 27.4754C32.9972 27.494 33.0388 27.5259 33.0694 27.5673L33.8588 28.6436C33.8998 28.6994 33.96 28.7381 34.0278 28.7523C34.0956 28.7665 34.1663 28.7551 34.2262 28.7204L36.0844 27.6479C36.1444 27.6132 36.1895 27.5576 36.2111 27.4917C36.2327 27.4258 36.2293 27.3543 36.2016 27.2907L35.6625 26.0654C35.6417 26.0182 35.6349 25.9659 35.6429 25.9149C35.6508 25.8639 35.6733 25.8163 35.7075 25.7776C36.1122 25.3073 36.4269 24.7664 36.6356 24.182C36.6521 24.1333 36.6821 24.0902 36.7221 24.0579C36.7621 24.0255 36.8105 24.0052 36.8616 23.9992L38.1863 23.8539C38.2554 23.846 38.3192 23.813 38.3655 23.7612C38.4119 23.7093 38.4375 23.6422 38.4375 23.5726V21.4267C38.4375 21.3575 38.4119 21.2907 38.3657 21.2392C38.3195 21.1876 38.256 21.1549 38.1872 21.1473L36.8625 21.0029C36.8114 20.9971 36.763 20.9768 36.7229 20.9444C36.6829 20.912 36.653 20.8689 36.6366 20.8201C36.4284 20.2355 36.1137 19.6945 35.7084 19.2245C35.6742 19.1858 35.6518 19.1382 35.6438 19.0872C35.6358 19.0362 35.6426 18.9839 35.6634 18.9367L36.2025 17.7114C36.2305 17.6479 36.234 17.5763 36.2123 17.5103C36.1907 17.4444 36.1455 17.3888 36.0853 17.3542L34.2272 16.2807C34.1672 16.246 34.0966 16.2347 34.0287 16.2489C33.9609 16.2631 33.9007 16.3018 33.8597 16.3576ZM33.9047 23.672C33.7519 23.9407 33.5475 24.1765 33.3032 24.3659C33.0589 24.5553 32.7796 24.6945 32.4813 24.7755C32.183 24.8564 31.8716 24.8776 31.5651 24.8378C31.2586 24.7979 30.963 24.6979 30.6953 24.5433C30.4276 24.3888 30.1932 24.1828 30.0054 23.9373C29.8177 23.6917 29.6803 23.4115 29.6013 23.1126C29.5223 22.8138 29.5032 22.5023 29.5451 22.1961C29.587 21.8898 29.689 21.5949 29.8453 21.3282C30.1583 20.7943 30.6698 20.4059 31.2682 20.2477C31.8665 20.0895 32.5031 20.1744 33.0391 20.4838C33.5751 20.7933 33.9669 21.3022 34.1291 21.8995C34.2913 22.4968 34.2106 23.134 33.9047 23.672Z" fill="#C29137"/>
<rect x="0.5" y="0.5" width="59" height="59" rx="29.5" stroke="#414141"/>
</svg>
