<svg width="80" height="80" viewBox="0 0 80 80" fill="none" xmlns="http://www.w3.org/2000/svg">
<circle cx="40" cy="40" r="40" fill="#C29137"/>
<g clip-path="url(#clip0_888_25519)">
<path d="M40 20C28.9716 20 20 28.9716 20 40C20 51.0284 28.9716 60 40 60C51.0284 60 60 51.0284 60 40C60 28.9716 51.0284 20 40 20ZM48.7471 45.9189C49.5284 46.7002 49.5284 47.9667 48.7471 48.748C48.3565 49.1377 47.8448 49.3329 47.333 49.3329C46.8213 49.3329 46.3096 49.1376 45.919 48.748L40 42.8281L34.0811 48.748C33.6905 49.1377 33.1788 49.333 32.667 49.333C32.1553 49.333 31.6436 49.1377 31.253 48.748C30.4717 47.9668 30.4717 46.7002 31.253 45.919L37.1719 40L31.253 34.0811C30.4717 33.2998 30.4717 32.0332 31.253 31.252C32.0342 30.4716 33.2998 30.4716 34.0811 31.252L40 37.1719L45.9189 31.252C46.7002 30.4716 47.9658 30.4716 48.747 31.252C49.5283 32.0332 49.5283 33.2998 48.747 34.0811L42.8281 40L48.7471 45.9189Z" fill="#FEFEFE"/>
</g>
<defs>
<clipPath id="clip0_888_25519">
<rect width="40" height="40" fill="white" transform="translate(20 20)"/>
</clipPath>
</defs>
</svg>
