<svg width="24" height="24" viewBox="0 0 24 24" fill="none" xmlns="http://www.w3.org/2000/svg">
<path d="M8.4 14.9992C10.5539 14.9992 12.3 13.2531 12.3 11.0992C12.3 8.94531 10.5539 7.19922 8.4 7.19922C6.24609 7.19922 4.5 8.94531 4.5 11.0992C4.5 13.2531 6.24609 14.9992 8.4 14.9992Z" fill="#FEFEFE"/>
<path d="M13.8 18V18.6C13.8 19.2365 13.5471 19.847 13.0971 20.2971C12.647 20.7471 12.0365 21 11.4 21H5.4C4.76348 21 4.15303 20.7471 3.70294 20.2971C3.25286 19.847 3 19.2365 3 18.6V18C2.99978 17.2374 3.20748 16.4892 3.60076 15.8359C3.99403 15.1825 4.55801 14.6487 5.232 14.292C6.07352 15.1297 7.21259 15.6 8.4 15.6C9.58741 15.6 10.7265 15.1297 11.568 14.292C12.242 14.6487 12.806 15.1825 13.1992 15.8359C13.5925 16.4892 13.8002 17.2374 13.8 18ZM16.2 3C14.9346 3.00136 13.7209 3.50176 12.8222 4.39257C11.9235 5.28338 11.4125 6.4927 11.4 7.758C11.8734 8.17629 12.2521 8.69078 12.5107 9.2671C12.7694 9.84342 12.9021 10.4683 12.9 11.1C12.901 11.1561 12.899 11.2121 12.894 11.268C13.4615 11.809 14.153 12.2027 14.9079 12.4145C15.6629 12.6263 16.4582 12.6498 17.2243 12.4829C17.9904 12.3161 18.704 11.9639 19.3024 11.4574C19.9009 10.9508 20.3661 10.3052 20.6572 9.57718C20.9483 8.84914 21.0565 8.06084 20.9723 7.2813C20.8881 6.50175 20.614 5.75474 20.1742 5.10566C19.7343 4.45658 19.142 3.92524 18.4492 3.55815C17.7563 3.19105 16.9841 2.99941 16.2 3ZM16.2 10.5C16.0813 10.5 15.9653 10.4648 15.8667 10.3989C15.768 10.333 15.6911 10.2392 15.6457 10.1296C15.6003 10.02 15.5884 9.89934 15.6115 9.78295C15.6347 9.66656 15.6918 9.55965 15.7757 9.47574C15.8596 9.39183 15.9666 9.33468 16.0829 9.31153C16.1993 9.28838 16.32 9.30026 16.4296 9.34567C16.5392 9.39109 16.633 9.46799 16.6989 9.56666C16.7648 9.66533 16.8 9.78133 16.8 9.9C16.8 10.0591 16.7368 10.2117 16.6243 10.3243C16.5117 10.4368 16.3591 10.5 16.2 10.5ZM16.8 8.1C16.8 8.25913 16.7368 8.41174 16.6243 8.52426C16.5117 8.63679 16.3591 8.7 16.2 8.7C16.0409 8.7 15.8883 8.63679 15.7757 8.52426C15.6632 8.41174 15.6 8.25913 15.6 8.1V5.7C15.6 5.54087 15.6632 5.38826 15.7757 5.27574C15.8883 5.16322 16.0409 5.1 16.2 5.1C16.3591 5.1 16.5117 5.16322 16.6243 5.27574C16.7368 5.38826 16.8 5.54087 16.8 5.7V8.1Z" fill="#FEFEFE"/>
</svg>
