<svg width="24" height="24" viewBox="0 0 24 24" fill="none" xmlns="http://www.w3.org/2000/svg">
<g clip-path="url(#clip0_888_19936)">
<path d="M21.0375 0H12C10.3638 0 9.0375 1.32384 9.0375 2.9625V16.5187C9.0375 17.0938 9.69708 17.4302 10.1625 17.0812L12.9875 14.9625H21.0375C22.6738 14.9625 24 13.6386 24 12V2.9625C24 1.32619 22.6762 0 21.0375 0ZM16.5187 11.5733C16.1307 11.5733 15.8155 11.2584 15.8155 10.8702C15.8155 10.4822 16.1307 10.1671 16.5187 10.1671C16.9069 10.1671 17.2218 10.4822 17.2218 10.8702C17.2218 11.2584 16.9069 11.5733 16.5187 11.5733ZM17.2218 8.46389V8.61089C17.2218 8.99925 16.9071 9.31402 16.5187 9.31402C16.1305 9.31402 15.8155 8.99925 15.8155 8.61089V7.8578C15.8155 7.46944 16.1305 7.15467 16.5187 7.15467C17.1693 7.15467 17.6984 6.62545 17.6984 5.97492C17.6984 5.32453 17.1692 4.79536 16.5187 4.79536C15.8648 4.79536 15.3391 5.32416 15.3391 5.97417C15.3391 6.36253 15.0242 6.67786 14.636 6.67786C14.2476 6.67786 13.9328 6.36328 13.9328 5.97511V5.97417C13.9328 4.54411 15.0905 3.38911 16.518 3.38911C17.9447 3.38911 19.1047 4.54908 19.1047 5.97511C19.1047 7.15725 18.3073 8.15681 17.2218 8.46389ZM7.79241 14.6202C7.79241 16.4558 6.30431 17.944 4.46869 17.944C2.63306 17.944 1.14497 16.4559 1.14497 14.6202C1.14497 12.7844 2.63306 11.2963 4.46869 11.2963C6.30431 11.2963 7.79241 12.7844 7.79241 14.6202ZM4.46869 17.944C2.00081 17.944 0 19.9447 0 22.4127V23.2969C0 23.6852 0.314766 24 0.703125 24H8.23444C8.62261 24 8.93756 23.6852 8.93756 23.2969V22.4127C8.93756 19.9447 6.93675 17.944 4.46869 17.944Z" fill="#FEFEFE"/>
</g>
<defs>
<clipPath id="clip0_888_19936">
<rect width="24" height="24" fill="white"/>
</clipPath>
</defs>
</svg>
