<svg width="60" height="60" viewBox="0 0 60 60" fill="none" xmlns="http://www.w3.org/2000/svg">
<rect x="0.5" y="0.5" width="59" height="59" rx="29.5" fill="#414141"/>
<path d="M19.795 34.8013C20.6219 35.5359 21.5603 36.1346 22.575 36.575L27.88 33.2437C28.4208 32.9076 29.0591 32.7638 29.6918 32.8355C30.3244 32.9071 30.9144 33.1902 31.3663 33.6388L33.15 35.4225C35.8238 33.4513 37.5 30.2975 37.5 26.875C37.5 21.0163 32.7338 16.25 26.875 16.25C21.0163 16.25 16.25 21.0163 16.25 26.875C16.2502 28.3712 16.5661 29.8505 17.177 31.2163C17.7878 32.5821 18.6799 33.8037 19.795 34.8013ZM27.35 27.8125H26.4C25.7361 27.8134 25.096 27.5653 24.6061 27.1172C24.1162 26.669 23.8122 26.0535 23.7541 25.3921C23.696 24.7307 23.888 24.0716 24.2923 23.5449C24.6965 23.0183 25.2836 22.6624 25.9375 22.5475V21.5625C25.9375 21.3139 26.0363 21.0754 26.2121 20.8996C26.3879 20.7238 26.6264 20.625 26.875 20.625C27.1236 20.625 27.3621 20.7238 27.5379 20.8996C27.7137 21.0754 27.8125 21.3139 27.8125 21.5625V22.5H29.0625C29.3111 22.5 29.5496 22.5988 29.7254 22.7746C29.9012 22.9504 30 23.1889 30 23.4375C30 23.6861 29.9012 23.9246 29.7254 24.1004C29.5496 24.2762 29.3111 24.375 29.0625 24.375H26.4C26.1945 24.375 25.9973 24.4567 25.852 24.602C25.7067 24.7473 25.625 24.9445 25.625 25.15C25.625 25.59 25.9725 25.9375 26.4 25.9375H27.35C28.0139 25.9366 28.6541 26.1847 29.1439 26.6328C29.6338 27.081 29.9378 27.6965 29.9959 28.3579C30.054 29.0193 29.862 29.6784 29.4577 30.2051C29.0535 30.7317 28.4664 31.0876 27.8125 31.2025V32.1862C27.8125 32.4349 27.7137 32.6733 27.5379 32.8492C27.3621 33.025 27.1236 33.1237 26.875 33.1237C26.6264 33.1237 26.3879 33.025 26.2121 32.8492C26.0363 32.6733 25.9375 32.4349 25.9375 32.1862V31.25H24.6875C24.4389 31.25 24.2004 31.1512 24.0246 30.9754C23.8488 30.7996 23.75 30.5611 23.75 30.3125C23.75 30.0639 23.8488 29.8254 24.0246 29.6496C24.2004 29.4738 24.4389 29.375 24.6875 29.375H27.35C27.5555 29.375 27.7527 29.2933 27.898 29.148C28.0433 29.0027 28.125 28.8055 28.125 28.6C28.1262 28.4973 28.107 28.3954 28.0686 28.3002C28.0302 28.2049 27.9734 28.1182 27.9013 28.045C27.8293 27.9718 27.7435 27.9136 27.6489 27.8737C27.5543 27.8338 27.4527 27.813 27.35 27.8125Z" fill="#C29137"/>
<path d="M43.7498 30H38.7498C38.5026 30.0001 38.261 30.0734 38.0554 30.2107C37.8499 30.3481 37.6898 30.5433 37.5952 30.7717C37.5006 31.0001 37.4758 31.2513 37.524 31.4938C37.5722 31.7362 37.6913 31.9589 37.866 32.1337L39.4823 33.75L34.3748 38.8575L30.2585 34.7413C30.0593 34.5422 29.7987 34.4162 29.519 34.3838C29.2392 34.3514 28.9567 34.4143 28.7173 34.5625L15.5923 42.6875C15.3207 42.8666 15.1296 43.1444 15.0596 43.4621C14.9896 43.7798 15.0462 44.1123 15.2173 44.3889C15.3885 44.6655 15.6608 44.8645 15.9763 44.9436C16.2919 45.0227 16.6258 44.9757 16.9073 44.8125L29.1898 37.2088L33.4898 41.5088C33.6057 41.6249 33.7435 41.7171 33.8951 41.78C34.0468 41.8429 34.2093 41.8753 34.3735 41.8753C34.5377 41.8753 34.7002 41.8429 34.8519 41.78C35.0035 41.7171 35.1413 41.6249 35.2573 41.5088L41.2498 35.5175L42.866 37.1338C43.0408 37.3085 43.2635 37.4275 43.506 37.4757C43.7484 37.5239 43.9997 37.4992 44.2281 37.4046C44.4565 37.31 44.6517 37.1498 44.789 36.9443C44.9264 36.7388 44.9997 36.4972 44.9998 36.25V31.25C44.9998 30.9185 44.8681 30.6005 44.6336 30.3661C44.3992 30.1317 44.0813 30 43.7498 30Z" fill="#C29137"/>
<rect x="0.5" y="0.5" width="59" height="59" rx="29.5" stroke="#414141"/>
</svg>
