<svg width="60" height="60" viewBox="0 0 60 60" fill="none" xmlns="http://www.w3.org/2000/svg">
<rect x="0.5" y="0.5" width="59" height="59" rx="29.5" fill="#414141"/>
<g clip-path="url(#clip0_204_17718)">
<path d="M41.9243 28.6678C41.8864 28.3304 41.4929 28.0767 41.1527 28.0767C40.0531 28.0767 39.0773 27.4313 38.668 26.4324C38.2503 25.4095 38.5198 24.2169 39.339 23.4653C39.4633 23.3516 39.5399 23.195 39.5535 23.0271C39.5671 22.8592 39.5166 22.6924 39.4122 22.5602C38.8536 21.85 38.2158 21.2058 37.5112 20.6402C37.2379 20.421 36.8363 20.4515 36.5992 20.714C35.8839 21.5062 34.5991 21.8005 33.6062 21.3863C32.5734 20.9517 31.9215 19.9048 31.9855 18.781C31.9956 18.611 31.9402 18.4435 31.8306 18.3131C31.721 18.1827 31.5656 18.0992 31.3964 18.0799C30.5 17.9761 29.5956 17.9731 28.6966 18.0728C28.5293 18.0914 28.3751 18.1725 28.265 18.2998C28.1549 18.4272 28.0969 18.5914 28.1026 18.7596C28.1415 19.8724 27.4822 20.9008 26.4594 21.3199C25.4784 21.7206 24.2025 21.4284 23.4887 20.6432C23.3751 20.5189 23.2187 20.442 23.0508 20.4279C22.8829 20.4138 22.7159 20.4636 22.5832 20.5674C21.8648 21.1307 21.2135 21.7747 20.642 22.4867C20.5356 22.6192 20.4838 22.7873 20.4971 22.9567C20.5104 23.1261 20.5878 23.2841 20.7135 23.3984C21.5489 24.1549 21.8182 25.3579 21.3845 26.3927C20.9704 27.3792 19.946 28.0147 18.7735 28.0147C18.393 28.0025 18.1222 28.2581 18.0802 28.6041C17.975 29.5105 17.9733 30.4259 18.0751 31.3327C18.113 31.6715 18.5181 31.9231 18.862 31.9231C19.9072 31.8965 20.9101 32.5431 21.3313 33.5672C21.7506 34.5901 21.4807 35.7823 20.6601 36.5348C20.4034 36.7708 20.3706 37.1649 20.5874 37.4388C21.1453 38.1488 21.782 38.7932 22.4854 39.3594C22.6181 39.4662 22.7867 39.5183 22.9565 39.5048C23.1263 39.4914 23.2846 39.4135 23.3989 39.2871C24.1169 38.4931 25.4015 38.1992 26.3903 38.6143C27.4262 39.0477 28.0778 40.0946 28.0142 41.2186C28.0041 41.3886 28.0595 41.556 28.169 41.6864C28.2784 41.8168 28.4337 41.9003 28.6029 41.9198C29.0616 41.9734 29.5228 42 29.9854 42C30.4244 42 30.8635 41.976 31.3027 41.9271C31.4701 41.9086 31.6243 41.8274 31.7344 41.7C31.8445 41.5726 31.9024 41.4082 31.8965 41.2399C31.8563 40.1277 32.517 39.0991 33.5387 38.6809C34.5261 38.2776 35.7963 38.5728 36.5105 39.3568C36.6243 39.4809 36.7807 39.5576 36.9485 39.5716C37.1163 39.5857 37.2832 39.536 37.4161 39.4326C38.1344 38.8691 38.7857 38.2251 39.3573 37.5132C39.464 37.3807 39.5161 37.2125 39.5028 37.0429C39.4895 36.8733 39.4119 36.7153 39.2858 36.6011C38.4506 35.845 38.1798 34.6416 38.6135 33.6078C39.0212 32.6346 40.0075 31.9811 41.0682 31.9811L41.2166 31.985C41.561 32.013 41.8775 31.7478 41.9191 31.3964C42.0248 30.4901 42.0265 29.5746 41.9243 28.6678ZM29.9998 36.9181C26.1789 36.9181 23.0817 33.8209 23.0817 30.0001C23.0817 26.1794 26.179 23.0821 29.9998 23.0821C33.8206 23.0821 36.9179 26.1794 36.9179 30.0001C36.9179 31.297 36.5603 32.51 35.9394 33.5473L32.9101 30.518C33.132 29.994 33.246 29.4307 33.2451 28.8618C33.2451 27.7289 32.8039 26.6639 32.0028 25.8629C31.2018 25.0619 30.1368 24.6208 29.0041 24.6208C28.6261 24.6208 28.2499 24.6711 27.8859 24.7702C27.8064 24.7927 27.7341 24.8353 27.6759 24.8939C27.6177 24.9525 27.5756 25.0252 27.5536 25.1048C27.5103 25.2682 27.5591 25.4356 27.6868 25.5634C27.6868 25.5634 29.1823 27.0704 29.6827 27.5707C29.7351 27.6231 29.735 27.7482 29.7277 27.7932L29.723 27.8261C29.6725 28.3762 29.5753 29.0365 29.4951 29.2903C29.4843 29.301 29.4741 29.31 29.4631 29.321C29.4516 29.3326 29.441 29.3437 29.4299 29.3551C29.1728 29.4376 28.5023 29.536 27.9435 29.586L27.9436 29.583L27.9185 29.5893C27.9106 29.5901 27.9026 29.5905 27.8947 29.5905C27.8343 29.5905 27.7454 29.5736 27.6647 29.4929C27.1439 28.9721 25.707 27.5455 25.707 27.5455C25.5781 27.417 25.4458 27.39 25.3577 27.39C25.1523 27.39 24.9684 27.5384 24.9105 27.7513C24.5149 29.2151 24.9343 30.7896 26.0051 31.8605C26.8062 32.6616 27.8713 33.1027 29.0042 33.1027C29.5732 33.1035 30.1364 32.9895 30.6603 32.7676L33.7225 35.8298C32.6116 36.5419 31.3194 36.9197 29.9998 36.9181Z" fill="#C29137"/>
</g>
<rect x="0.5" y="0.5" width="59" height="59" rx="29.5" stroke="#414141"/>
<defs>
<clipPath id="clip0_204_17718">
<rect width="24" height="24" fill="white" transform="translate(18 18)"/>
</clipPath>
</defs>
</svg>
