<svg width="24" height="24" viewBox="0 0 24 24" fill="none" xmlns="http://www.w3.org/2000/svg">
<path d="M14.6189 12.5273C14.3739 13.7294 13.2736 14.6367 12.0004 14.6367C10.7272 14.6367 9.66207 13.7294 9.41706 12.5273H8.3623C8.62095 14.3115 10.1457 15.6914 12.0004 15.6914C13.8551 15.6914 15.415 14.3115 15.6737 12.5273H14.6189Z" fill="#DADBDC"/>
<path d="M16.728 12.5273C16.4617 14.8939 14.4366 16.7461 12 16.7461C9.56343 16.7461 7.57344 14.8939 7.3072 12.5273H3V13.0547C3 13.2818 3.14576 13.4837 3.36102 13.5552L5.53079 14.2634C5.62195 14.5219 5.71825 14.7572 5.82125 14.9745L4.82011 16.9861C4.77092 17.085 4.75405 17.1969 4.77188 17.3059C4.78972 17.415 4.84135 17.5156 4.9195 17.5937L6.40625 19.0805C6.56745 19.2417 6.81154 19.2798 7.01393 19.1799L9.02547 18.1787C9.2428 18.2818 9.47814 18.378 9.73664 18.4692L10.4448 20.639C10.4798 20.7441 10.5469 20.8355 10.6368 20.9003C10.7266 20.9651 10.8346 20.9999 10.9453 21H13.0898C13.317 21 13.5188 20.8542 13.5904 20.639L14.2985 18.4692C14.5571 18.378 14.7924 18.2818 15.0097 18.1787L17.0212 19.1799C17.2236 19.2803 17.4682 19.2417 17.6289 19.0805L19.1157 17.5937C19.1938 17.5156 19.2454 17.415 19.2633 17.3059C19.2811 17.1969 19.2642 17.085 19.215 16.9861L18.2139 14.9745C18.3169 14.7572 18.4132 14.5219 18.5044 14.2634L20.639 13.5552C20.7441 13.5202 20.8355 13.4531 20.9003 13.3632C20.9651 13.2734 20.9999 13.1654 21 13.0547V12.5273H16.728Z" fill="#DADBDC"/>
<path d="M10.5151 12.5273C10.7335 13.1398 11.3134 13.582 12 13.582C12.6866 13.582 13.3016 13.1398 13.5201 12.5273H10.5151ZM12 3C10.8366 3 9.89062 3.94602 9.89062 5.10938C9.89062 6.27273 10.8366 7.21875 12 7.21875C13.1634 7.21875 14.1445 6.27273 14.1445 5.10938C14.1445 3.94602 13.1634 3 12 3ZM17.3086 3C16.1452 3 15.1992 3.94602 15.1992 5.10938C15.1992 6.27273 16.1452 7.21875 17.3086 7.21875C18.4719 7.21875 19.418 6.27273 19.418 5.10938C19.418 3.94602 18.4719 3 17.3086 3ZM6.72656 3C5.56321 3 4.61719 3.94602 4.61719 5.10938C4.61719 6.27273 5.56321 7.21875 6.72656 7.21875C7.88992 7.21875 8.83594 6.27273 8.83594 5.10938C8.83594 3.94602 7.88992 3 6.72656 3ZM19.1074 7.70682C18.5959 8.06222 17.9773 8.27344 17.3086 8.27344C16.6427 8.27344 16.026 8.06447 15.5157 7.71178C15.2844 7.84457 15.0621 7.99388 14.8609 8.17391C15.8864 8.94053 16.5984 10.1378 16.749 11.4727H21V10.9453C21 9.56638 20.2307 8.34052 19.1074 7.70682ZM12 8.27344C10.1435 8.27344 8.60264 9.68619 8.34618 11.4727H15.6889C15.4325 9.68619 13.8565 8.27344 12 8.27344ZM8.51943 7.71178C8.00913 8.06447 7.39249 8.27344 6.72656 8.27344C6.05786 8.27344 5.43928 8.06222 4.92779 7.70682C3.80441 8.34052 3 9.56638 3 10.9453V11.4727H7.28611C7.43672 10.1378 8.14874 8.94053 9.17428 8.17391C8.97298 7.99388 8.75072 7.84457 8.51943 7.71178Z" fill="#DADBDC"/>
</svg>
