<svg width="80" height="80" viewBox="0 0 80 80" fill="none" xmlns="http://www.w3.org/2000/svg">
<circle cx="40" cy="40" r="40" fill="#C29137"/>
<path d="M35.6347 50.6397L32.0705 52.3765L29.593 43.2268L33.0777 41.4845C34.3887 40.8287 35.8344 40.4872 37.3003 40.4871H45.9226C47.0637 40.4871 48.0555 41.4412 48.0555 42.62C48.0555 43.6983 47.1837 44.6553 46.1026 44.7432L43.222 44.9817C41.3834 45.1365 41.6122 47.9139 43.4521 47.7633L46.3314 47.5247C48.5619 47.3406 50.3642 45.6443 50.7604 43.5044L56.191 42.0146C56.66 41.8813 57.162 41.9297 57.597 42.1499C58.032 42.3702 58.368 42.7463 58.5381 43.2032C58.7082 43.6601 58.7 44.1643 58.515 44.6154C58.33 45.0665 57.9819 45.4314 57.54 45.6373L45.9645 51.905C44.6898 52.5956 43.1963 52.7627 41.8005 52.3709L35.6347 50.6397ZM29.4689 55.5193L21 60V45.3528L25.8517 43.1766C25.9437 43.1354 26.0434 43.1146 26.1442 43.1156C26.2449 43.1166 26.3442 43.1395 26.4353 43.1826C26.5264 43.2256 26.607 43.2879 26.6717 43.3652C26.7364 43.4424 26.7836 43.5327 26.8101 43.63L29.8148 54.72C29.8564 54.8727 29.8448 55.0351 29.782 55.1803C29.7191 55.3256 29.6087 55.4451 29.4689 55.5193ZM46.2728 20.1707L45.0982 21.7721C45.0526 21.8339 44.9903 21.8813 44.9186 21.909C44.847 21.9367 44.769 21.9434 44.6937 21.9283C43.7853 21.7554 42.8525 21.7554 41.9442 21.9283C41.8691 21.9433 41.7913 21.9365 41.7199 21.9088C41.6485 21.8812 41.5864 21.8337 41.541 21.7721L40.3664 20.1707C40.3054 20.0876 40.2158 20.03 40.1149 20.0089C40.014 19.9878 39.9088 20.0046 39.8196 20.0563L37.0548 21.6521C36.9655 21.7038 36.8984 21.7866 36.8662 21.8846C36.834 21.9826 36.8391 22.0891 36.8804 22.1836L37.6825 24.0068C37.7135 24.0772 37.7236 24.1549 37.7117 24.2308C37.6999 24.3067 37.6665 24.3776 37.6156 24.4351C37.0133 25.135 36.5452 25.9398 36.2345 26.8094C36.21 26.8819 36.1653 26.9459 36.1058 26.9941C36.0463 27.0422 35.9744 27.0725 35.8983 27.0814L33.9272 27.2976C33.8246 27.3089 33.7299 27.3578 33.6611 27.4348C33.5924 27.5118 33.5545 27.6115 33.5548 27.7147V30.9078C33.5548 31.0108 33.5929 31.1101 33.6616 31.1868C33.7303 31.2635 33.8249 31.3122 33.9272 31.3235L35.8983 31.5397C35.9744 31.5484 36.0465 31.5787 36.106 31.6268C36.1655 31.675 36.2101 31.7391 36.2345 31.8117C36.5456 32.6906 37.0199 33.4927 37.6156 34.186C37.6665 34.2435 37.6999 34.3144 37.7117 34.3903C37.7236 34.4662 37.7135 34.5439 37.6825 34.6142L36.8804 36.4375C36.8388 36.532 36.8336 36.6385 36.8657 36.7366C36.8979 36.8347 36.9653 36.9175 37.0548 36.969L39.8196 38.5662C39.9088 38.6178 40.014 38.6347 40.1149 38.6136C40.2158 38.5925 40.3054 38.5349 40.3664 38.4518L41.541 36.8504C41.5864 36.7887 41.6485 36.7413 41.7199 36.7137C41.7913 36.686 41.8691 36.6792 41.9442 36.6941C42.8524 36.8679 43.7854 36.8679 44.6937 36.6941C44.7688 36.6792 44.8466 36.686 44.9179 36.7137C44.9893 36.7413 45.0514 36.7887 45.0968 36.8504L46.2714 38.4518C46.3324 38.5349 46.422 38.5925 46.5229 38.6136C46.6238 38.6347 46.729 38.6178 46.8182 38.5662L49.583 36.9704C49.6723 36.9187 49.7395 36.8359 49.7716 36.7379C49.8038 36.6398 49.7987 36.5334 49.7574 36.4389L48.9553 34.6156C48.9244 34.5453 48.9142 34.4676 48.9261 34.3917C48.9379 34.3158 48.9713 34.2449 49.0223 34.1874C49.6245 33.4875 50.0927 32.6826 50.4033 31.8131C50.4279 31.7406 50.4725 31.6766 50.532 31.6284C50.5915 31.5803 50.6634 31.55 50.7395 31.5411L52.7106 31.3249C52.8134 31.3132 52.9084 31.2641 52.9773 31.1869C53.0463 31.1098 53.0844 31.0099 53.0844 30.9064V27.7133C53.0844 27.6103 53.0463 27.511 52.9776 27.4343C52.9089 27.3576 52.8143 27.3089 52.712 27.2976L50.7409 27.0828C50.6648 27.074 50.5928 27.0438 50.5332 26.9957C50.4737 26.9475 50.4291 26.8833 50.4047 26.8107C50.0949 25.9408 49.6267 25.1358 49.0237 24.4365C48.9727 24.379 48.9393 24.3081 48.9275 24.2322C48.9156 24.1563 48.9257 24.0786 48.9567 24.0082L49.7588 22.185C49.8004 22.0905 49.8057 21.984 49.7735 21.8859C49.7413 21.7877 49.674 21.705 49.5844 21.6535L46.8196 20.0563C46.7304 20.0046 46.6252 19.9878 46.5243 20.0089C46.4234 20.03 46.3338 20.0876 46.2728 20.1707ZM46.3397 31.0543C46.1124 31.4541 45.8083 31.805 45.4448 32.0868C45.0813 32.3686 44.6656 32.5757 44.2218 32.6962C43.7779 32.8167 43.3146 32.8482 42.8585 32.7889C42.4024 32.7296 41.9626 32.5807 41.5643 32.3508C41.166 32.1208 40.8171 31.8143 40.5377 31.449C40.2584 31.0836 40.054 30.6666 39.9364 30.222C39.8189 29.7773 39.7904 29.3138 39.8528 28.8581C39.9151 28.4025 40.0669 27.9636 40.2995 27.5668C40.7652 26.7724 41.5263 26.1944 42.4166 25.959C43.307 25.7236 44.2543 25.8499 45.0518 26.3104C45.8493 26.7709 46.4324 27.5281 46.6736 28.4168C46.9149 29.3056 46.7949 30.2537 46.3397 31.0543Z" fill="#FEFEFE"/>
</svg>
