<svg width="14" height="13" viewBox="0 0 14 13" fill="none" xmlns="http://www.w3.org/2000/svg">
<path d="M6.12885 0.545575C6.51136 -0.133069 7.48864 -0.13307 7.87115 0.545574L9.3145 3.10634C9.4572 3.35952 9.70299 3.53809 9.98787 3.59557L12.8693 4.17696C13.633 4.33104 13.9349 5.26048 13.4077 5.83399L11.4183 7.99802C11.2216 8.21197 11.1277 8.5009 11.1611 8.78961L11.4986 11.7097C11.588 12.4836 10.7974 13.058 10.089 12.7338L7.41616 11.5105C7.1519 11.3895 6.8481 11.3895 6.58384 11.5105L3.91096 12.7338C3.2026 13.058 2.41197 12.4836 2.50141 11.7097L2.83889 8.78961C2.87226 8.50091 2.77838 8.21197 2.58169 7.99802L0.592277 5.83399C0.065051 5.26048 0.367044 4.33104 1.13068 4.17696L4.01213 3.59557C4.29701 3.53809 4.5428 3.35952 4.6855 3.10634L6.12885 0.545575Z" fill="#FFDF00"/>
</svg>
