<svg width="16" height="16" viewBox="0 0 16 16" fill="none" xmlns="http://www.w3.org/2000/svg">
<g clip-path="url(#clip0_1972_6353)">
<path d="M16.0002 10.8284C16.0002 8.84289 14.8612 7.07092 13.1552 6.20898C13.1023 10.0159 10.0159 13.1023 6.20898 13.1552C7.07092 14.8612 8.84289 16.0002 10.8284 16.0002C11.7593 16.0002 12.6645 15.7523 13.4599 15.2812L15.9776 15.9776L15.2812 13.46C15.7523 12.6645 16.0002 11.7593 16.0002 10.8284Z" fill="#C2C2C3"/>
<path d="M12.2188 6.10938C12.2188 2.74062 9.47812 0 6.10938 0C2.74062 0 0 2.74062 0 6.10938C0 7.20728 0.29225 8.27625 0.847188 9.21472L0.0224375 12.1962L3.004 11.3716C3.9425 11.9265 5.01147 12.2188 6.10938 12.2188C9.47812 12.2188 12.2188 9.47812 12.2188 6.10938ZM5.17188 4.6875H4.23438C4.23438 3.65356 5.07544 2.8125 6.10938 2.8125C7.14331 2.8125 7.98438 3.65356 7.98438 4.6875C7.98438 5.21228 7.76219 5.71669 7.37463 6.07116L6.57812 6.80016V7.53125H5.64062V6.38734L6.74169 5.37953C6.93847 5.19947 7.04688 4.95375 7.04688 4.6875C7.04688 4.17053 6.62634 3.75 6.10938 3.75C5.59241 3.75 5.17188 4.17053 5.17188 4.6875ZM5.64062 8.46875H6.57812V9.40625H5.64062V8.46875Z" fill="#C2C2C3"/>
</g>
<defs>
<clipPath id="clip0_1972_6353">
<rect width="16" height="16" fill="white"/>
</clipPath>
</defs>
</svg>
