<svg width="24" height="24" viewBox="0 0 24 24" fill="none" xmlns="http://www.w3.org/2000/svg">
<path d="M19.609 16.8911C19.3233 16.8912 19.042 16.8217 18.7892 16.6887C18.5364 16.5557 18.3197 16.3632 18.1579 16.1278L17.2962 14.8744C16.2812 16.6945 14.3516 17.8694 12.1741 17.8694C9.13573 17.8694 6.62909 15.5486 6.33356 12.5868H6.89143C6.99839 12.5868 7.10332 12.5576 7.19489 12.5023C7.28645 12.447 7.36117 12.3677 7.41096 12.2731C7.46075 12.1784 7.48373 12.0719 7.47741 11.9652C7.47109 11.8584 7.43571 11.7554 7.37509 11.6672L6.51944 10.4227L5.22288 8.53672C5.16895 8.45825 5.09674 8.39407 5.01247 8.34974C4.92821 8.3054 4.83442 8.28223 4.73921 8.28223C4.64399 8.28222 4.5502 8.30538 4.46593 8.34971C4.38166 8.39404 4.30945 8.45821 4.25551 8.53668L2.1033 11.6672C2.0427 11.7553 2.00733 11.8583 2.00102 11.9651C1.99471 12.0719 2.01769 12.1784 2.06749 12.273C2.11728 12.3677 2.192 12.4469 2.28356 12.5022C2.37512 12.5575 2.48004 12.5868 2.587 12.5868H3.19268C3.33233 14.7698 4.24931 16.8031 5.81008 18.3639C7.50998 20.0638 9.77009 21 12.1741 21C14.5781 21 16.8383 20.0638 18.5382 18.3639C18.9874 17.9146 19.3882 17.4194 19.7338 16.8863C19.6923 16.8894 19.6506 16.891 19.609 16.8911Z" fill="#DADBDC"/>
<path d="M12.622 11.4131H11.7276C11.558 11.4131 11.4201 11.2752 11.4201 11.1057V10.6585C11.4201 10.489 11.558 10.3511 11.7276 10.3511H12.622C12.7915 10.3511 12.9294 10.489 12.9294 10.6585C12.9294 10.9827 13.1922 11.2454 13.5164 11.2454C13.8405 11.2454 14.1033 10.9826 14.1033 10.6585C14.1033 9.88883 13.5132 9.25458 12.7617 9.18392V8.86967C12.7617 8.54549 12.4989 8.28271 12.1747 8.28271C11.8505 8.28271 11.5878 8.54553 11.5878 8.86967V9.18392C10.8362 9.25458 10.2461 9.88883 10.2461 10.6585V11.1057C10.2461 11.9226 10.9106 12.5871 11.7275 12.5871H12.6219C12.7914 12.5871 12.9293 12.725 12.9293 12.8945V13.3418C12.9293 13.5113 12.7914 13.6492 12.6219 13.6492H11.7275C11.558 13.6492 11.42 13.5113 11.42 13.3418C11.42 13.0176 11.1572 12.7549 10.8331 12.7549C10.5089 12.7549 10.2461 13.0177 10.2461 13.3418C10.2461 14.1115 10.8362 14.7457 11.5878 14.8164V15.1306C11.5878 15.4548 11.8506 15.7175 12.1748 15.7175C12.4989 15.7175 12.7617 15.4547 12.7617 15.1306V14.8163C13.5132 14.7457 14.1034 14.1114 14.1034 13.3418V12.8945C14.1033 12.0777 13.4388 11.4131 12.622 11.4131Z" fill="#DADBDC"/>
<path d="M22.2815 11.7269C22.2317 11.6322 22.157 11.553 22.0654 11.4977C21.9739 11.4424 21.869 11.4132 21.762 11.4132H21.1563C21.0167 9.23007 20.0997 7.19684 18.5389 5.63604C16.8391 3.93617 14.5789 3 12.1749 3C9.77094 3 7.51075 3.93617 5.81089 5.63608C5.36164 6.08531 4.96088 6.58055 4.61523 7.11362C4.65676 7.11053 4.69838 7.10891 4.74003 7.10877C5.02567 7.10873 5.30703 7.1782 5.55983 7.31118C5.81263 7.44416 6.02927 7.63666 6.19106 7.87207L7.05276 9.12546C8.06782 7.30546 9.99744 6.13051 12.1749 6.13051C15.2133 6.13051 17.7199 8.45131 18.0154 11.4132H17.4576C17.3506 11.4132 17.2457 11.4424 17.1541 11.4977C17.0625 11.553 16.9878 11.6322 16.938 11.7269C16.8882 11.8216 16.8653 11.928 16.8716 12.0348C16.8779 12.1416 16.9133 12.2446 16.9739 12.3327L17.8296 13.5773L19.1261 15.4632C19.1801 15.5417 19.2523 15.6059 19.3366 15.6502C19.4208 15.6945 19.5146 15.7177 19.6098 15.7177C19.705 15.7177 19.7988 15.6945 19.8831 15.6502C19.9674 15.6059 20.0396 15.5417 20.0935 15.4632L20.8707 14.3328L22.2457 12.3328C22.3063 12.2446 22.3417 12.1416 22.348 12.0348C22.3543 11.928 22.3313 11.8216 22.2815 11.7269Z" fill="#DADBDC"/>
</svg>
